<svg width="175" height="66" viewBox="0 0 175 66" fill="none" xmlns="http://www.w3.org/2000/svg">
<path d="M83.5872 37.1066H87.5015V44.0915C87.5015 44.8353 87.4405 46.3164 87.3234 48.5414H87.4141L93.895 37.1066H99.3203V53.3706H95.4291V46.5638C95.4291 45.5313 95.4934 43.9892 95.6303 41.9358H95.5379L89.0009 53.3706H83.5856V37.1066H83.5872ZM106.934 40.7747V45.307H110.382V40.7747H114.728V53.3706H110.382V48.5414H106.934V53.3706H102.586V40.7747H106.934ZM130.084 44.0321C130.084 44.7644 129.868 45.3763 129.439 45.8579C129.01 46.3362 128.418 46.6446 127.669 46.7683V46.8557C128.576 46.958 129.267 47.2697 129.749 47.786C130.232 48.2989 130.471 48.9636 130.471 49.7668C130.471 52.1699 128.517 53.3689 124.597 53.3689H117.735V40.773H124.619C126.453 40.773 127.821 41.0386 128.724 41.5746C129.632 42.1057 130.084 42.927 130.084 44.0321ZM126.056 49.3462C126.056 48.952 125.922 48.67 125.656 48.5001C125.391 48.3286 125.003 48.2461 124.498 48.2461H122.084V50.5238H124.452C125.524 50.5238 126.056 50.133 126.056 49.3462ZM125.755 44.6127C125.755 43.9513 125.358 43.6214 124.556 43.6214H122.085V45.5132H124.39C124.85 45.5132 125.191 45.4291 125.419 45.2592C125.642 45.086 125.755 44.8699 125.755 44.6127ZM139.083 53.5982C136.984 53.5982 135.354 53.0407 134.193 51.9241C133.035 50.8075 132.454 49.2176 132.454 47.1559C132.454 45.0266 132.99 43.3938 134.067 42.2541C135.141 41.1161 136.675 40.5454 138.669 40.5454C140.568 40.5454 142.034 41.0386 143.07 42.0298C144.103 43.0211 144.619 44.4477 144.619 46.3082V48.2445H136.848C136.878 48.9471 137.135 49.5013 137.624 49.9004C138.105 50.2995 138.77 50.5008 139.605 50.5008C140.368 50.5008 141.069 50.4282 141.711 50.2847C142.353 50.1412 143.047 49.8938 143.796 49.5441V52.6762C143.116 53.0226 142.41 53.265 141.685 53.397C140.957 53.5306 140.088 53.5982 139.083 53.5982ZM138.823 43.5076C138.315 43.5076 137.886 43.6709 137.539 43.9942C137.195 44.3174 136.993 44.8221 136.937 45.5132H140.669C140.654 44.9046 140.484 44.4197 140.154 44.0552C139.822 43.689 139.382 43.5076 138.823 43.5076ZM152.819 53.5982C150.757 53.5982 149.197 53.0407 148.129 51.9274C147.067 50.8158 146.534 49.2176 146.534 47.1328C146.534 45.0415 147.108 43.4202 148.258 42.269C149.409 41.1177 151.041 40.5454 153.164 40.5454C154.625 40.5454 155.999 40.8654 157.291 41.502L156.011 44.7166C155.483 44.489 154.996 44.3026 154.553 44.1657C154.109 44.0288 153.645 43.9612 153.164 43.9612C152.458 43.9612 151.915 44.235 151.527 44.7858C151.145 45.3334 150.95 46.1069 150.95 47.1097C150.95 49.1252 151.694 50.1346 153.187 50.1346C154.462 50.1346 155.684 49.7635 156.854 49.023V52.4849C155.735 53.2271 154.391 53.5982 152.819 53.5982ZM171.048 44.009H166.902V53.3706H162.551V44.009H158.406V40.7747H171.049V44.009H171.048Z" fill="white"/>
<path d="M90.6752 28.9754L87.3465 17.2602H87.2475C87.4026 19.2576 87.4785 20.8063 87.4785 21.9113V28.977H83.5873V12.713H89.4381L92.8328 24.2616H92.9235L96.2489 12.713H102.111V28.977H98.0716V21.847C98.0716 21.4743 98.0799 21.0652 98.0914 20.61C98.1013 20.1581 98.1525 19.0497 98.2399 17.285H98.1409L94.8567 28.977H90.6752V28.9754ZM111.441 29.203C109.341 29.203 107.711 28.6455 106.55 27.5289C105.392 26.4123 104.812 24.8224 104.812 22.7607C104.812 20.6314 105.348 18.9986 106.425 17.8589C107.5 16.7192 109.033 16.1502 111.027 16.1502C112.925 16.1502 114.392 16.6434 115.428 17.6346C116.46 18.6259 116.977 20.0525 116.977 21.913V23.8493H109.206C109.236 24.5519 109.495 25.1061 109.981 25.5036C110.463 25.9027 111.128 26.1039 111.962 26.1039C112.726 26.1039 113.427 26.0313 114.069 25.8879C114.71 25.7444 115.405 25.497 116.154 25.1473V28.2794C115.474 28.6241 114.768 28.8682 114.042 29.0001C113.316 29.1337 112.447 29.203 111.441 29.203ZM111.182 19.1108C110.674 19.1108 110.245 19.2741 109.899 19.5973C109.554 19.9189 109.353 20.4253 109.295 21.1163H113.026C113.011 20.5094 112.841 20.0228 112.511 19.6583C112.182 19.2938 111.741 19.1108 111.182 19.1108ZM118.917 21.4347C118.917 20.1597 119.03 19.0085 119.255 17.9843C119.482 16.9551 119.855 16.0628 120.368 15.3008C120.884 14.5421 121.556 13.9071 122.384 13.3942C123.209 12.8813 124.207 12.4904 125.368 12.2215C126.534 11.9477 128.546 11.6937 131.402 11.4579L131.812 15.0567C130.955 15.126 129.78 15.2348 128.297 15.3981C126.813 15.5581 125.828 15.7131 125.343 15.8682C124.856 16.0282 124.465 16.2376 124.162 16.4982C123.862 16.7638 123.642 17.0936 123.497 17.4895C123.349 17.887 123.258 18.4049 123.223 19.0415H123.413C123.672 18.522 124.112 18.0898 124.734 17.7402C125.356 17.3938 126.056 17.2206 126.826 17.2206C128.398 17.2206 129.612 17.6874 130.468 18.6176C131.318 19.5478 131.746 20.892 131.746 22.6486C131.746 24.702 131.177 26.3084 130.038 27.4663C128.898 28.6241 127.319 29.2013 125.302 29.2013C123.312 29.2013 121.752 28.5185 120.616 27.1545C119.482 25.7889 118.917 23.8839 118.917 21.4347ZM125.528 25.967C126.729 25.967 127.331 25.0187 127.331 23.1203C127.331 21.2516 126.78 20.3181 125.683 20.3181C125.251 20.3181 124.79 20.4896 124.301 20.8343C123.811 21.1807 123.487 21.5287 123.332 21.8866C123.332 23.1005 123.529 24.0835 123.919 24.8405C124.317 25.5926 124.851 25.967 125.528 25.967ZM140.373 29.203C138.274 29.203 136.644 28.6455 135.483 27.5289C134.325 26.4123 133.744 24.8224 133.744 22.7607C133.744 20.6314 134.278 18.9986 135.357 17.8589C136.431 16.7192 137.965 16.1502 139.959 16.1502C141.858 16.1502 143.323 16.6434 144.359 17.6346C145.391 18.6259 145.907 20.0525 145.907 21.913V23.8493H138.135C138.166 24.5519 138.424 25.1061 138.91 25.5036C139.394 25.9027 140.057 26.1039 140.891 26.1039C141.655 26.1039 142.358 26.0313 142.999 25.8879C143.641 25.7444 144.335 25.497 145.084 25.1473V28.2794C144.405 28.6241 143.699 28.8682 142.973 29.0001C142.249 29.1337 141.38 29.203 140.373 29.203ZM140.114 19.1108C139.606 19.1108 139.176 19.2741 138.831 19.5973C138.486 19.9189 138.283 20.4253 138.227 21.1163H141.96C141.945 20.5094 141.774 20.0228 141.444 19.6583C141.114 19.2938 140.674 19.1108 140.114 19.1108ZM161.017 28.9754H156.669V19.6138H154.11C153.868 22.3204 153.56 24.3094 153.188 25.5811C152.816 26.8527 152.308 27.7763 151.654 28.3453C151.001 28.9193 150.12 29.203 149.015 29.203C148.245 29.203 147.588 29.0925 147.049 28.8682V25.6306C147.291 25.7625 147.618 25.8318 148.029 25.8318C148.364 25.8318 148.632 25.6619 148.842 25.3155C149.046 24.9692 149.233 24.42 149.393 23.6646C149.548 22.9092 149.696 21.9377 149.825 20.7485C149.954 19.5643 150.079 18.1063 150.198 16.3795H161.019V28.9754H161.017ZM168.371 16.3778V20.9102H168.78C170.967 20.9102 172.55 21.2137 173.53 21.8223C174.51 22.4292 175 23.4238 175 24.8026C175 26.2491 174.53 27.3079 173.588 27.9726C172.646 28.6406 171.219 28.9754 169.304 28.9754H164.019V16.3778H168.371ZM170.649 24.9923C170.649 24.5552 170.528 24.2402 170.284 24.0472C170.038 23.8542 169.631 23.7586 169.058 23.7586H168.371V26.127H169.103C170.137 26.127 170.649 25.7477 170.649 24.9923Z" fill="white"/>
<path fill-rule="evenodd" clip-rule="evenodd" d="M7.46569 57.5912H12.8002H35.1973V63.7976C35.1973 64.4887 34.6315 65.0561 33.9387 65.0561H12.8002H0V22.3962V16.1898C0 15.4971 0.567433 14.9314 1.25858 14.9314H14.9314H22.3971H21.1385C21.8296 14.9314 22.3971 15.4971 22.3971 16.1898V22.3962V38.2034L42.663 14.9297L49.0532 14.9264C49.6107 14.9264 50.1303 15.375 50.1303 16.0117V26.9187V42.6599H57.5976V26.9187H57.596V7.46486H37.3317H14.933V1.25844C14.933 0.56572 15.5005 0 16.1916 0H37.3317H65.0633V42.6599V48.8663C65.0633 49.559 64.4975 50.1247 63.8048 50.1247H43.9232C43.2304 50.1247 42.6646 49.559 42.6646 48.8663V42.6599L42.663 26.8527L22.3987 50.1247L16.0283 50.1264C15.4642 50.1264 14.9314 49.686 14.9314 49.0428V32.3334V22.3962H7.46569V32.3334V57.5912Z" fill="white"/>
</svg>
