<?xml version="1.0" encoding="utf-8"?>
<svg viewBox="0 0 500 500" xmlns="http://www.w3.org/2000/svg">
  <path d="M 248.58 213.552 L 88.58 53.552 C 76.08 41.052 55.83 41.052 43.33 53.552 C 30.83 66.052 30.83 86.302 43.33 98.802 L 180.78 236.152 L 43.38 373.552 C 30.88 386.052 30.88 406.302 43.38 418.802 C 49.61 425.052 57.79 428.152 65.98 428.152 C 74.17 428.152 82.36 425.027 88.6 418.777 L 248.6 258.777 C 261.08 246.252 261.08 226.052 248.58 213.552 Z M 440.58 213.552 L 280.58 53.552 C 268.08 41.052 247.83 41.052 235.33 53.552 C 222.83 66.052 222.83 86.302 235.33 98.802 L 372.78 236.152 L 235.38 373.552 C 222.88 386.052 222.88 406.302 235.38 418.802 C 241.58 425.052 249.78 428.152 257.98 428.152 C 266.18 428.152 274.36 425.027 280.6 418.777 L 440.6 258.777 C 453.08 246.252 453.08 226.052 440.58 213.552 Z" style="fill: rgb(255, 255, 255);"/>
</svg>