<svg width="25" height="25" viewBox="0 0 25 25" fill="none" xmlns="http://www.w3.org/2000/svg">
<path d="M22.1886 2.99268C21.9451 3.00337 21.708 3.07114 21.4943 3.15674C21.2827 3.24177 20.0646 3.76169 18.2657 4.53077C16.4669 5.29985 14.1286 6.30135 11.8107 7.29444C7.17479 9.28062 2.61926 11.2349 2.61926 11.2349L2.65246 11.2222C2.65246 11.2222 2.37751 11.3141 2.09875 11.5083C1.95937 11.6054 1.80942 11.7308 1.68664 11.9136C1.56386 12.0964 1.4741 12.3554 1.50793 12.6294C1.62674 13.5918 2.62414 13.8648 2.62414 13.8648L2.62804 13.8667L7.07922 15.3901C7.1927 15.7687 8.42927 19.896 8.70129 20.77C8.85151 21.2533 8.99212 21.532 9.13879 21.7222C9.21218 21.8173 9.2891 21.891 9.37414 21.9448C9.40793 21.9662 9.44347 21.9823 9.47863 21.9966C9.47938 21.9969 9.47983 21.9963 9.48058 21.9966C9.4849 21.9985 9.48897 21.9987 9.49328 22.0005L9.48156 21.9976C9.48973 22.0009 9.49779 22.0064 9.50597 22.0093C9.52184 22.0148 9.53157 22.0147 9.55187 22.019C10.0616 22.197 10.4835 21.8667 10.4835 21.8667L10.5011 21.853L13.2355 19.3169L17.673 22.7769L17.7286 22.8023C18.5054 23.1471 19.2078 22.9547 19.5968 22.6382C19.9858 22.3217 20.1388 21.9136 20.1388 21.9136L20.1554 21.8706L23.4161 4.87549C23.4996 4.49528 23.5114 4.16662 23.4327 3.86964C23.354 3.57265 23.1629 3.31449 22.923 3.17139C22.6831 3.0283 22.4321 2.982 22.1886 2.99268ZM22.215 4.00928C22.3139 4.0047 22.3872 4.01601 22.4103 4.02979C22.4334 4.04357 22.4438 4.04176 22.4659 4.12549C22.4881 4.20923 22.5001 4.3856 22.4396 4.66163L22.4376 4.66749L19.1954 21.564C19.1878 21.581 19.1202 21.7373 18.9659 21.8628C18.8086 21.9908 18.6336 22.0908 18.1691 21.896L13.3165 18.1118L13.1798 18.0044L13.1769 18.0073L11.7257 16.9185L19.881 7.32374C19.9436 7.2502 19.9837 7.16009 19.9962 7.06429C20.0087 6.9685 19.9933 6.87112 19.9516 6.78393C19.91 6.69675 19.844 6.62349 19.7616 6.57302C19.6792 6.52254 19.584 6.49701 19.4874 6.49952C19.393 6.50197 19.3013 6.53109 19.2228 6.5835L7.42199 14.4507L2.96398 12.9243C2.96398 12.9243 2.5213 12.678 2.50012 12.5064C2.49894 12.4968 2.49371 12.5055 2.51672 12.4712C2.53972 12.437 2.59754 12.3791 2.67004 12.3286C2.81503 12.2276 2.98058 12.1665 2.98058 12.1665L2.99719 12.1607L3.01379 12.1538C3.01379 12.1538 7.56956 10.1995 12.2052 8.21339C14.523 7.22035 16.8609 6.21958 18.6593 5.45069C20.4572 4.682 21.7563 4.1287 21.8663 4.08448C21.9916 4.03433 22.1161 4.01386 22.215 4.00928ZM16.8068 9.396L10.6222 16.6724L10.6193 16.6753C10.6096 16.6869 10.6005 16.699 10.5919 16.7114C10.5821 16.725 10.573 16.739 10.5646 16.7534C10.5298 16.8124 10.5076 16.8779 10.4991 16.9458C10.4991 16.9471 10.4991 16.9484 10.4991 16.9497L9.69347 20.5728C9.68008 20.5336 9.6707 20.5193 9.65637 20.4732V20.4722C9.40047 19.6499 8.2338 15.7576 8.07238 15.2192L16.8068 9.396ZM11.3204 17.8648L12.4318 18.6987L10.7989 20.2124L11.3204 17.8648Z" fill="#B0BAA4"/>
</svg>
