<svg width="72" height="72" viewBox="0 0 72 72" fill="none" xmlns="http://www.w3.org/2000/svg">
<path d="M36 9C32.4543 9 28.9433 9.69838 25.6675 11.0553C22.3918 12.4121 19.4153 14.4009 16.9081 16.9081C14.4009 19.4153 12.4121 22.3918 11.0553 25.6675C9.69838 28.9433 9 32.4543 9 36C9 39.5457 9.69838 43.0567 11.0553 46.3325C12.4121 49.6082 14.4009 52.5847 16.9081 55.0919C19.4153 57.5991 22.3918 59.5879 25.6675 60.9447C28.9433 62.3016 32.4543 63 36 63C39.5457 63 43.0567 62.3016 46.3325 60.9447C49.6082 59.5879 52.5847 57.5991 55.0919 55.0919C57.5991 52.5847 59.5879 49.6082 60.9447 46.3325C62.3016 43.0567 63 39.5457 63 36C63 32.4543 62.3016 28.9433 60.9447 25.6675C59.5879 22.3918 57.5991 19.4153 55.0919 16.9081C52.5847 14.4009 49.6082 12.4121 46.3325 11.0553C43.0567 9.69838 39.5457 9 36 9V9Z" stroke="white" stroke-width="4" stroke-miterlimit="10"/>
<path d="M23.625 38.8125L31.2469 45.5625L48.375 25.875" stroke="white" stroke-width="4" stroke-miterlimit="10" stroke-linecap="round"/>
</svg>
