<svg width="75" height="75" viewBox="0 0 75 75" fill="none" xmlns="http://www.w3.org/2000/svg">
<path d="M33.5938 4.68749C33.2832 4.6831 32.9748 4.74048 32.6866 4.85629C32.3984 4.9721 32.1361 5.14404 31.9149 5.36211C31.6937 5.58019 31.5181 5.84005 31.3982 6.12659C31.2784 6.41313 31.2166 6.72063 31.2166 7.03124C31.2166 7.34185 31.2784 7.64935 31.3982 7.93589C31.5181 8.22243 31.6937 8.48229 31.9149 8.70037C32.1361 8.91844 32.3984 9.09038 32.6866 9.20619C32.9748 9.322 33.2832 9.37938 33.5938 9.37499H35.1562V12.619C20.7453 13.8167 9.375 25.9107 9.375 40.625C9.375 56.1302 21.9947 68.75 37.5 68.75C53.0053 68.75 65.625 56.1302 65.625 40.625C65.625 33.7144 63.1087 27.3878 58.9569 22.4853L61.8073 19.6319C62.1454 19.3026 62.3762 18.8789 62.4695 18.4163C62.5629 17.9536 62.5144 17.4735 62.3304 17.0389C62.1463 16.6043 61.8354 16.2353 61.4382 15.9803C61.0411 15.7253 60.5762 15.5961 60.1044 15.6097C59.4957 15.6275 58.9178 15.8814 58.493 16.3177L55.6396 19.1681C51.2983 15.4914 45.8373 13.1171 39.8438 12.619V9.37499H41.4062C41.7168 9.37938 42.0252 9.322 42.3134 9.20619C42.6016 9.09038 42.8639 8.91844 43.0851 8.70037C43.3063 8.48229 43.4819 8.22243 43.6018 7.93589C43.7216 7.64935 43.7834 7.34185 43.7834 7.03124C43.7834 6.72063 43.7216 6.41313 43.6018 6.12659C43.4819 5.84005 43.3063 5.58019 43.0851 5.36211C42.8639 5.14404 42.6016 4.9721 42.3134 4.85629C42.0252 4.74048 41.7168 4.6831 41.4062 4.68749H33.5938ZM37.2223 17.2027C37.4108 17.2257 37.6014 17.2257 37.7899 17.2027C44.0939 17.2795 49.786 19.8205 53.949 23.9197C54.0251 24.0081 54.1077 24.0907 54.1962 24.1669C58.3641 28.395 60.9375 34.1998 60.9375 40.625C60.9375 53.5969 50.4719 64.0625 37.5 64.0625C24.5281 64.0625 14.0625 53.5969 14.0625 40.625C14.0625 27.7468 24.3805 17.3525 37.2223 17.2027ZM47.6105 28.1036C47.0018 28.1214 46.4239 28.3753 45.9991 28.8116L38.7085 36.1023C38.3146 35.995 37.9083 35.9396 37.5 35.9375C36.2568 35.9375 35.0645 36.4313 34.1854 37.3104C33.3064 38.1895 32.8125 39.3818 32.8125 40.625C32.8125 41.8682 33.3064 43.0605 34.1854 43.9396C35.0645 44.8186 36.2568 45.3125 37.5 45.3125C38.2187 45.3121 38.9276 45.1465 39.572 44.8284C40.2165 44.5104 40.7792 44.0484 41.2166 43.4783C41.654 42.9081 41.9545 42.245 42.0948 41.5401C42.2351 40.8353 42.2115 40.1077 42.0258 39.4134L49.3134 32.1258C49.6515 31.7965 49.8823 31.3728 49.9757 30.9102C50.069 30.4475 50.0205 29.9674 49.8365 29.5328C49.6524 29.0982 49.3415 28.7292 48.9443 28.4742C48.5472 28.2192 48.0823 28.09 47.6105 28.1036Z" fill="white"/>
</svg>
