<svg width="78" height="78" viewBox="0 0 78 78" fill="none" xmlns="http://www.w3.org/2000/svg">
<path d="M33.4425 1.56916C31.3275 1.63233 29.2839 2.73389 28.1196 4.65869L27.7083 5.34119C27.1209 6.31101 26.0858 6.90832 24.9539 6.93166H24.9509L24.1526 6.94994C20.7271 7.02128 17.9366 9.80974 17.8669 13.2356L17.8486 14.0339C17.8253 15.1659 17.2261 16.2031 16.2581 16.7883L15.5756 17.2027C12.6445 18.977 11.6211 22.789 13.2722 25.7918H13.2753L13.6592 26.4926C14.2054 27.4843 14.2054 28.6818 13.6592 29.6735L13.2753 30.3713C11.6244 33.3736 12.6457 37.1862 15.5787 38.9604L16.2612 39.3717C17.231 39.9591 17.8283 40.9942 17.8517 42.1261V42.1292L17.8699 42.9274C17.9276 45.6984 19.7752 48.0268 22.2879 48.8628L14.1832 66.4249C14.0732 66.6627 14.0249 66.9244 14.0427 67.1857C14.0605 67.4471 14.1438 67.6998 14.285 67.9205C14.4261 68.1412 14.6206 68.3228 14.8504 68.4486C15.0802 68.5743 15.338 68.6401 15.6 68.64H25.7705L31.5413 75.855C31.7091 76.0647 31.9283 76.2276 32.1775 76.3277C32.4268 76.4279 32.6977 76.462 32.964 76.4268C33.2303 76.3915 33.483 76.2881 33.6976 76.1266C33.9122 75.965 34.0815 75.7508 34.189 75.5046L39.0488 64.3988L43.9085 75.5046C44.0161 75.7508 44.1853 75.965 44.3999 76.1266C44.6146 76.2881 44.8673 76.3915 45.1336 76.4268C45.3999 76.462 45.6707 76.4279 45.92 76.3277C46.1692 76.2276 46.3884 76.0647 46.5563 75.855L52.3271 68.64H62.4975C62.7595 68.6401 63.0173 68.5743 63.2471 68.4486C63.477 68.3228 63.6714 68.1412 63.8126 67.9205C63.9538 67.6998 64.0371 67.4471 64.0548 67.1857C64.0726 66.9244 64.0243 66.6627 63.9143 66.4249L55.7974 48.8353C58.2679 47.9758 60.0761 45.6681 60.1331 42.9274V42.9244L60.1514 42.1292V42.1261C60.1748 40.9942 60.7739 39.957 61.7419 39.3717L62.4274 38.9574C65.3586 37.1831 66.379 33.3741 64.7278 30.3713L64.7248 30.3682L64.3348 29.6644C63.7919 28.6739 63.7926 27.4792 64.3378 26.4896L64.7248 25.7918V25.7888C66.3749 22.7878 65.3545 18.9779 62.4244 17.2027L62.4214 17.1996L61.7388 16.7883C60.7691 16.2012 60.1717 15.1658 60.1484 14.0339V14.0309L60.1301 13.2356V13.2326C60.0588 9.80707 57.2703 7.0166 53.8444 6.94689L53.0461 6.92861C51.9142 6.90527 50.877 6.30614 50.2917 5.33814L49.8774 4.65564C48.1032 1.72261 44.2905 0.701339 41.2882 2.35221V2.35525L40.5874 2.73916C39.5957 3.28539 38.3982 3.28539 37.4065 2.73916L36.7088 2.35525C35.9582 1.94254 35.1578 1.69643 34.3505 1.60572C34.0478 1.57171 33.7447 1.56014 33.4425 1.56916ZM33.3633 4.68002C33.9803 4.635 34.6197 4.76553 35.2067 5.0883L35.9013 5.47221C37.8268 6.53278 40.1701 6.53278 42.0956 5.47221L42.7934 5.08525V5.0883C44.3587 4.22757 46.2837 4.74192 47.2083 6.27049L47.6227 6.95299C48.7594 8.83157 50.7839 10.0023 52.9791 10.0486L53.7804 10.0669C55.567 10.1032 56.9768 11.51 57.0131 13.2966V13.2996L57.0284 14.0979C57.0737 16.295 58.2453 18.3194 60.124 19.4574L60.8065 19.8717C62.3341 20.7958 62.8503 22.7188 61.9917 24.2836L61.6048 24.9844C60.5442 26.9099 60.5442 29.2501 61.6048 31.1756L61.6078 31.1787V31.1817L61.9948 31.8734C62.8553 33.4383 62.3368 35.3638 60.8096 36.2883L60.1271 36.7027C58.2465 37.8397 57.0767 39.865 57.0314 42.0621L57.0162 42.8604V42.8635C56.9798 44.65 55.57 46.0568 53.7835 46.0931L52.9821 46.1114C50.7862 46.1577 48.7631 47.3261 47.6257 49.204V49.2071L47.2113 49.8895C46.2867 51.4181 44.3618 51.9325 42.7964 51.0717V51.0748L42.0987 50.6878C40.1732 49.6273 37.8299 49.6273 35.9044 50.6878L35.2067 51.0748V51.0717C33.6418 51.9322 31.7162 51.4168 30.7917 49.8895L30.3774 49.2071C29.2407 47.3285 27.2161 46.1577 25.021 46.1114H25.0179L24.2196 46.0931C22.433 46.0568 21.0232 44.65 20.9869 42.8635V42.8604L20.9717 42.0621C20.9264 39.865 19.7548 37.8406 17.876 36.7027L17.1935 36.2883C15.665 35.3635 15.1476 33.4387 16.0083 31.8734L16.3922 31.1787V31.1756C17.4513 29.2507 17.4523 26.909 16.3922 24.9844L16.0053 24.2867H16.0083C15.1478 22.7218 15.6632 20.7962 17.1905 19.8717L17.873 19.4574C19.7516 18.3207 20.9223 16.2961 20.9686 14.101V14.0979L20.9869 13.2996C21.0232 11.513 22.43 10.1032 24.2166 10.0669H24.2196L25.0179 10.0517C27.215 10.0064 29.2394 8.83478 30.3774 6.95604L30.7917 6.27354C31.254 5.50925 31.9643 4.99587 32.757 4.78361C32.9551 4.73055 33.1576 4.69503 33.3633 4.68002ZM52.5738 49.3015L60.057 65.52H51.5775C51.3435 65.5199 51.1125 65.5724 50.9015 65.6737C50.6905 65.7749 50.505 65.9223 50.3588 66.105L45.7306 71.888L40.752 60.5018L43.3784 54.4995C45.8856 54.8911 48.4997 53.787 49.8804 51.5044L50.2948 50.8219C50.7977 49.9916 51.6349 49.4593 52.5738 49.3015ZM25.5176 49.3137C26.421 49.491 27.2229 50.0191 27.7083 50.8219L28.1227 51.5044C29.897 54.4356 33.709 55.459 36.7118 53.8078V53.8048L37.4126 53.4209C38.3645 52.8966 39.5015 52.8899 40.4686 53.3721L32.367 71.888L27.7388 66.105C27.5925 65.9223 27.407 65.7749 27.196 65.6737C26.9851 65.5724 26.754 65.5199 26.52 65.52H18.0406L25.5176 49.3137Z" fill="white"/>
</svg>
