<svg width="26" height="26" viewBox="0 0 26 26" fill="none" xmlns="http://www.w3.org/2000/svg">
<path d="M13 1.04004C6.401 1.04004 1.04004 6.401 1.04004 13C1.04004 15.1212 1.62176 17.1007 2.59191 18.8287L1.05934 24.2999C1.03485 24.3874 1.03375 24.4799 1.05613 24.568C1.07851 24.6561 1.1236 24.7368 1.1869 24.8021C1.2502 24.8673 1.32949 24.9148 1.41689 24.9399C1.50428 24.9649 1.59671 24.9666 1.68496 24.9448L7.38973 23.5311C9.06605 24.426 10.9682 24.96 13 24.96C19.5991 24.96 24.96 19.5991 24.96 13C24.96 6.401 19.5991 1.04004 13 1.04004ZM13 2.08004C19.037 2.08004 23.92 6.96308 23.92 13C23.92 19.037 19.037 23.92 13 23.92C11.0646 23.92 9.25194 23.4154 7.67613 22.5337C7.56088 22.4693 7.42545 22.4512 7.2973 22.4829L2.30145 23.721L3.64105 18.9414C3.66022 18.8739 3.66552 18.8032 3.65661 18.7335C3.64771 18.6639 3.6248 18.5968 3.58926 18.5362C2.6316 16.9123 2.08004 15.0229 2.08004 13C2.08004 6.96308 6.96308 2.08004 13 2.08004ZM8.65418 6.76004C8.32084 6.76004 7.84478 6.88405 7.45371 7.30543C7.21882 7.55852 6.24004 8.51218 6.24004 10.1888C6.24004 11.9368 7.45236 13.4451 7.59895 13.6389H7.59996V13.6399C7.58606 13.6216 7.78602 13.9112 8.05293 14.2584C8.31984 14.6056 8.69309 15.0617 9.16199 15.5554C10.0998 16.5428 11.4183 17.6839 13.0549 18.3818C13.8085 18.7028 14.4031 18.8965 14.8536 19.0379C15.6884 19.3001 16.4487 19.2602 17.0199 19.1761C17.4474 19.1131 17.9176 18.9078 18.3829 18.6134C18.8481 18.319 19.304 17.9529 19.5051 17.3967C19.6492 16.9979 19.7224 16.6294 19.7489 16.3262C19.7621 16.1746 19.7638 16.0408 19.7539 15.9169C19.7441 15.793 19.7546 15.6981 19.6392 15.5086C19.3971 15.1111 19.1229 15.1008 18.8368 14.9592C18.6779 14.8805 18.2253 14.6595 17.7714 14.4432C17.3181 14.2272 16.9255 14.0359 16.6837 13.9496C16.531 13.8947 16.3444 13.8156 16.0754 13.8461C15.8063 13.8765 15.5405 14.0707 15.3857 14.3C15.2391 14.5174 14.6486 15.2144 14.4686 15.4193C14.4662 15.4178 14.4819 15.425 14.4107 15.3898C14.1881 15.2796 13.9158 15.1859 13.5129 14.9734C13.11 14.7609 12.606 14.447 12.0545 13.9608V13.9598C11.2336 13.2371 10.6586 12.3298 10.4772 12.025C10.4894 12.0105 10.4758 12.0281 10.5016 12.0027L10.5026 12.0017C10.688 11.8191 10.8523 11.601 10.9911 11.4411C11.188 11.2143 11.2748 11.0144 11.3689 10.8276C11.5565 10.4554 11.4521 10.0458 11.3436 9.83027V9.82926C11.351 9.84417 11.2849 9.69812 11.2136 9.52965C11.142 9.3607 11.0509 9.14166 10.9536 8.90809C10.7589 8.44094 10.5415 7.91699 10.4122 7.61012V7.6091C10.2599 7.24763 10.0539 6.98723 9.78457 6.8616C9.51522 6.73597 9.27724 6.77169 9.26762 6.77121H9.2666C9.07439 6.76234 8.86346 6.76004 8.65418 6.76004ZM8.65418 7.80004C8.85466 7.80004 9.05231 7.80248 9.21785 7.81019C9.38815 7.81868 9.37756 7.81938 9.3448 7.8041C9.31153 7.78858 9.35668 7.78355 9.45348 8.01332C9.58005 8.3138 9.79849 8.83965 9.99379 9.30824C10.0914 9.54254 10.1828 9.76242 10.2558 9.93488C10.3288 10.1073 10.3684 10.2036 10.4143 10.2954V10.2964L10.4153 10.2975C10.4603 10.3863 10.4563 10.3294 10.4407 10.3604C10.3309 10.5782 10.316 10.6317 10.205 10.7596C10.036 10.9543 9.86363 11.1714 9.77238 11.2613C9.69255 11.3397 9.5485 11.4619 9.45855 11.7011C9.36847 11.9406 9.41052 12.2692 9.55504 12.5146C9.74746 12.8412 10.3815 13.8733 11.3669 14.7408C11.9875 15.2879 12.5656 15.6499 13.0275 15.8936C13.4893 16.1372 13.8655 16.2795 13.9496 16.3211C14.1495 16.4201 14.368 16.4969 14.622 16.4664C14.876 16.4359 15.095 16.2817 15.2344 16.1241L15.2354 16.1231C15.421 15.9127 15.9723 15.2832 16.2368 14.8952C16.248 14.8991 16.2444 14.8961 16.3323 14.9277V14.9287H16.3333C16.3735 14.943 16.8763 15.1681 17.3246 15.3817C17.7729 15.5953 18.2279 15.8173 18.3757 15.8905C18.5891 15.9961 18.6899 16.0649 18.716 16.0652C18.7177 16.1109 18.7195 16.1605 18.7129 16.2358C18.6947 16.4447 18.6389 16.7338 18.5271 17.0432C18.4723 17.1947 18.187 17.5072 17.8273 17.7349C17.4676 17.9625 17.0297 18.1233 16.8675 18.1472C16.38 18.2191 15.8011 18.2453 15.1654 18.0457C14.7245 17.9073 14.1749 17.7282 13.4632 17.4251C12.0197 16.8095 10.7929 15.762 9.9166 14.8393C9.47843 14.378 9.12737 13.9485 8.87762 13.6236C8.62833 13.2993 8.51947 13.1306 8.42871 13.0112L8.4277 13.0102C8.26658 12.7971 7.28004 11.4249 7.28004 10.1888C7.28004 8.88059 7.88766 8.36759 8.21644 8.01332C8.38905 7.82734 8.57776 7.80004 8.65418 7.80004Z" fill="#B0BAA4"/>
</svg>
